# xmcd
#
# Track frame offsets:
#	150
#	10330
#	18301
#	26252
#	36699
#	45220
#	58856
#	70323
#	82965
#	93642
#	100791
#	109953
#	121706
#	135849
#	148762
#	159959
#	172634
#	180834
#	194506
#
# Disc length: 2680 seconds
#
# Revision: 0
# Processed by: cddbd v1.5.2PL0 Copyright (c) Steve Scherf et al.
# Submitted via: EasyCDDAExtractor 12.0.1.1
#
DISCID=e90a7613
DTITLE=Flachgauer Dreiklang and Bleamibrocker - Zambundn
DYEAR=2014
DGENRE=Volksmusik
TTITLE0=Guate Vorsätz
TTITLE1=Da drunt bei da Mühl
TTITLE2=Des Wiesei is roanig
TTITLE3=Liebeslaube Franze
TTITLE4=Roter Mohn
TTITLE5=Hütteneck Walzer
TTITLE6=Halmal wiag di
TTITLE7=Beim Wirtsbauern Polka
TTITLE8=Is da Hoatawing ganga
TTITLE9=Nachwuchsboarischer
TTITLE10=Wann die Bachstauden bliahn
TTITLE11=Schönes Farmleiten
TTITLE12=Und i hab dir in die Äugerl gschaut and Gußwerker
TTITLE13=Freiensteiner Walzer
TTITLE14=Wann ma in da Fruah
TTITLE15=Fruahjahrswalzerl
TTITLE16=Wia sche draht sie die Glockenkuah and Berigler
TTITLE17=So tragisch werds net werden
TTITLE18=Will die Nacht hernieder sinken
EXTD=
EXTT0=
EXTT1=
EXTT2=
EXTT3=
EXTT4=
EXTT5=
EXTT6=
EXTT7=
EXTT8=
EXTT9=
EXTT10=
EXTT11=
EXTT12=
EXTT13=
EXTT14=
EXTT15=
EXTT16=
EXTT17=
EXTT18=
PLAYORDER=
